<svg width="30" height="30" viewBox="0 0 30 30" fill="none" xmlns="http://www.w3.org/2000/svg">
<g id="vuesax/bold/home">
<g id="vuesax/bold/home_2">
<g id="home">
<path id="Vector" d="M26.075 10.4626L17.4125 3.53756C16.075 2.46256 13.9125 2.46256 12.5875 3.52506L3.92503 10.4626C2.95003 11.2376 2.32503 12.8751 2.53753 14.1001L4.20003 24.0501C4.50003 25.8251 6.20003 27.2626 8.00003 27.2626H22C23.7875 27.2626 25.5 25.8126 25.8 24.0501L27.4625 14.1001C27.6625 12.8751 27.0375 11.2376 26.075 10.4626ZM15 19.3751C13.275 19.3751 11.875 17.9751 11.875 16.2501C11.875 14.5251 13.275 13.1251 15 13.1251C16.725 13.1251 18.125 14.5251 18.125 16.2501C18.125 17.9751 16.725 19.3751 15 19.3751Z" fill="#29AAE1"/>
</g>
</g>
</g>
</svg>
